<?xml version="1.0" encoding="UTF-8"?> <svg xmlns="http://www.w3.org/2000/svg" id="_Слой_2" data-name="Слой 2" viewBox="0 0 252.06 467.27"><defs><style> .cls-1 { fill: #fff; } </style></defs><g id="_Слой_1-2" data-name="Слой 1"><g><path class="cls-1" d="m178.84,0c1.08,1.77,3.01.88,4.5,1.32,13.19,3.93,20.88,14.31,20.92,29.1.08,30.26.03,60.51.03,90.77,0,20.68.08,41.36-.08,62.03-.02,3.19.75,4.06,3.97,4,6.06-.1,12.15-.59,18.2.51,14.67,2.67,25.32,14.72,25.39,29.6.15,31.78.7,63.57-.18,95.33-1.05,37.8-16.96,68.76-46.58,92.41-3.05,2.43-4.26,4.76-4.2,8.65.24,14.9.03,29.8.14,44.7.03,4.22-.79,7.62-5.45,8.66-3.92.87-6.73-1.27-8.5-6.24v-43.55c-4.33,1.9-8.41,3.84-12.59,5.49-3.82,1.5-7.04.1-8.68-3.43-1.75-3.76-.55-7.11,3.3-9.11,1.07-.56,2.23-.95,3.32-1.47,42.01-19.85,64.3-53.01,65.58-99.42.83-30.08.19-60.21.14-90.32-.02-10.93-7.02-17.98-17.92-18.12-7.91-.1-15.81-.04-23.72-.05-15.66,0-31.32-.08-46.98.03-10.52.08-17.25,7.22-17.19,17.7.05,9.35,7.77,16.41,17.11,16.08,15.49-.54,31.01-.17,46.52-.13,5.8.02,8.34,2.53,8.38,8.34.07,11.86-.01,23.72.04,35.58.02,3.97-1.76,6.43-5.39,8.09-14.96,6.85-26.39,17.68-34.8,31.73-9.48,15.83-12.81,33.25-13.18,51.44-.11,5.34-2.88,8.19-7.23,7.94-4.24-.24-6.62-3.12-6.46-8.25.19-5.92.47-11.84,1.35-17.72,4.89-32.66,20.19-58.48,49.4-75.11,1.78-1.01,2.62-2.03,2.58-4.18-.15-6.99-.18-13.99,0-20.98.07-2.73-.96-3.27-3.42-3.22-6.69.15-13.38-.02-20.07.08-3.31.05-7.46-1.39-9.69.62-2.07,1.87-.54,6.03-.68,9.17-.62,14.4-8.66,24.96-22.16,28.94-13.42,3.96-26.17-.49-34.27-12.27-1.44-2.09-2.22-2.19-4.11-.73-3.78,2.92-8.14,4.69-12.92,5.25-19.83,2.32-35.58-11.57-35.61-31.55-.06-54.89-.04-109.78-.07-164.67,0-2.72.17-5.45-.72-8.13-2.46-7.39-10.23-11.96-18.48-10.75-9.08,1.32-14.47,7.2-14.54,16.36-.13,15.66-.18,31.32.04,46.98.07,5.04-1.61,8.14-6.59,9.25-6.26-1.75-7.22-3-7.22-9.58-.01-15.04.24-30.09-.05-45.12-.57-29.09,28.53-36.9,46.2-27.69,9.39,4.89,14.73,12.76,14.94,23.31.37,18.22.17,36.46.21,54.69,0,1.65,0,3.29,0,5.4,5.24-2.34,10.19-4.5,15.73-4.58,8.95-.13,16.68,2.75,23.03,9.08,1.36,1.36,2.05,1.99,3.86.27,10.92-10.35,23.27-12.13,36.83-5.62.51.24,1.08.34,2.11.65v-5.24c0-32.97,0-65.94,0-98.91,0-18.63,4.78-25.57,22.29-32.51.34-.14.56-.6.83-.92,4.26,0,8.52,0,12.78,0Zm-22.14,105.9c0,25.84.05,51.68-.07,77.52-.01,2.93.7,3.87,3.73,3.79,8.51-.22,17.03-.3,25.53,0,3.8.13,4.73-.93,4.72-4.73-.16-36.63-.09-73.26-.09-109.89,0-14.14.1-28.27-.04-42.41-.09-10.04-6.29-16.32-16.05-16.69-10.94-.41-17.68,6.03-17.71,17.18-.06,25.08-.02,50.16-.02,75.24Zm-61.52,100.29h.02c0-13.98.11-27.96-.04-41.93-.11-10.43-6.66-16.8-16.83-16.78-10.16.02-16.87,6.43-16.92,16.79-.13,28.11-.06,56.21-.03,84.32,0,5.27,1.85,9.86,5.96,13.26,5.21,4.31,11.14,5.49,17.44,2.85,6.66-2.78,10.27-7.99,10.34-15.22.14-14.43.04-28.87.04-43.3Zm13.86,4.74c0,15.65-.14,31.3.05,46.95.12,10.19,6.65,16.54,16.55,16.7,10.03.17,16.79-6.3,17.25-16.57.09-2.12-.14-4.27.07-6.38.26-2.56-.63-3.7-3.21-4.42-5.99-1.66-10.97-5.08-14.9-9.95-13.44-16.65-6.24-41.43,14.01-48.47,1.47-.51,4.08.08,4.02-2.69-.2-8.95.87-17.96-.64-26.84-.87-5.12-4.28-8.61-9.13-10.53-12.22-4.84-23.86,2.88-24.03,16.15-.19,15.34-.04,30.69-.04,46.04Z"></path><path class="cls-1" d="m7.25,161.4c4.85.92,6.61,3.83,6.6,8.74-.11,45.6.05,91.2-.1,136.8-.17,52.64,39.36,100.05,91.28,109.29,6.76,1.2,13.53,1.73,20.38,1.99,5.64.21,8.51,4.19,6.98,9.14-1.22,3.96-4.28,4.6-7.91,4.56-22.19-.25-42.82-6.08-62.03-17.13-1.39-.8-2.57-2.09-4.67-2.16,0,16.13,0,32.17,0,48.2-1.29,4.71-3.96,6.84-7.91,6.33-3.95-.52-5.95-3.19-5.95-8.29-.03-17.94-.05-35.87.03-53.81.01-2.47-.7-4.12-2.56-5.85C13.9,373.68.03,342.15.05,304.56c.03-44.69,0-89.37.01-134.06,0-6.15,1.22-7.65,7.18-9.09Z"></path></g></g></svg> 