<?xml version="1.0" encoding="UTF-8"?> <svg xmlns="http://www.w3.org/2000/svg" id="Слой_1" data-name="Слой 1" viewBox="0 0 512 512"> <defs> <style>.cls-1{fill:#fff;}</style> </defs> <path class="cls-1" d="M279.83,481.65c-.18-.67-.75-.74-1.3-.95-11.19-4.34-16.23-11.74-16.24-23.91q0-47.75,0-95.5,0-82.73,0-165.47c0-4.2.8-7.6,5.46-8.75,6.4.52,7.74,2.06,7.74,9V454.73c0,1.47-.06,2.94,0,4.41.45,6.32,5.43,10,11.66,8.64,5.45-1.18,7.39-4.34,7.39-12.17q0-199.59,0-399.18a32.84,32.84,0,0,0-.34-5.25c-.61-3.73-2.93-5.93-6.55-6.87-7.05-1.82-12.15,2.4-12.16,10.25q-.06,50.67,0,101.33c0,6.51-1.45,8.09-7.74,8.61-3.89-1-5.44-3.57-5.43-7.44,0-34.66-.08-69.33.06-104a22.63,22.63,0,0,1,45.15-2.37,42.09,42.09,0,0,1,.26,5.27q0,200.07.05,400.16c0,10.25-3.44,18.34-12.87,23.17a56.27,56.27,0,0,1-6.28,2.36Z"></path> <path class="cls-1" d="M210.12,345.26c-4.45-.83-5.86-3.81-5.84-8,.05-10,0-20,0-30q0-97.6,0-195.23c0-12.77,7.83-22.8,19-24.49a22.93,22.93,0,0,1,26.45,21.33c.08,1.17.05,2.35.05,3.53q0,143.67,0,287.33c0,11.31-5,19.49-14.07,23.28-14.66,6.11-30.56-4.14-31.29-20.49-.43-9.53-.12-19.1-.1-28.64,0-3.9,1.89-6.37,5.81-7.11,6,.81,7.27,2.18,7.3,8.18,0,8.67,0,17.33,0,26,0,4.46,1.51,8,6.14,9.62,7.36,2.53,12.94-2.17,12.94-11q0-143.62,0-287.25a23.61,23.61,0,0,0-.19-4c-.83-4.72-4.42-7.57-9.36-7.56s-8.48,2.74-9.27,7.6a34.9,34.9,0,0,0-.27,5.7q0,111,0,222.05C217.43,343.05,216.31,344.41,210.12,345.26Z"></path> <path class="cls-1" d="M366,360.44a36.11,36.11,0,0,1-1.17,10.46c-3.25,11-13.37,18.35-23.65,17.15-11.34-1.33-19.78-10.88-20.63-23.35-.08-1.18-.06-2.35-.06-3.53q-.09-105.33-.18-210.65a30.35,30.35,0,0,1,1.74-11.22c3.94-10.16,13.6-16.57,23.21-15.33,10.34,1.33,18.9,10.24,20.07,21a66.07,66.07,0,0,1,.27,7q0,51.56,0,103.12C365.77,255.12,366,325.33,366,360.44ZM352.39,255.36q0-52,0-104a37,37,0,0,0-.25-5.27c-.7-5-4.55-8.81-8.85-9-4.12-.17-8.07,3.11-9.28,8a21.68,21.68,0,0,0-.45,5.23q0,105.51.11,211a20.18,20.18,0,0,0,.83,6.52,9,9,0,0,0,9.1,6.27c4.34-.16,7.08-2.53,8.44-6.52a22.77,22.77,0,0,0,.77-7.41C352.78,325.26,352.52,255.36,352.39,255.36Z"></path> <path class="cls-1" d="M35.83,247.37c-3.88-.93-5.48-3.43-5.47-7.36.05-24.09-.07-48.18.08-72.26a22.6,22.6,0,0,1,45.16-.91c.08,1.17.1,2.35.1,3.52q0,85.71,0,171.4c0,12.16-5.58,20.43-15.79,23.73-14,4.53-29.18-5.62-29.39-20.36-.35-25.11-.1-50.22-.13-75.34,0-3.79,1.83-6,5.45-6.93,6.21.56,7.72,2.23,7.73,8.67q0,29.28,0,58.55c0,4.84-.15,9.69.09,14.53.25,5.19,4,8.38,9.41,8.38,5.17,0,8.73-3.06,9.23-8.07a45.75,45.75,0,0,0,.14-4.83q0-84.09,0-168.17c0-1.76,0-3.53-.18-5.28a7.84,7.84,0,0,0-5.32-6.9c-7-2.86-13.34,1.53-13.35,9.38,0,23.19,0,46.38,0,69.56C43.55,245.12,42.05,246.78,35.83,247.37Z"></path> <path class="cls-1" d="M146.42,256.44c0-21.3-.18-42.6.06-63.89.2-17.73,18.22-28.65,33.23-20.26,7.58,4.24,11.93,10.89,11.95,19.71q.14,64.11,0,128.23a22.33,22.33,0,0,1-22.11,22.25c-12.58.19-22.78-9-23-21.7-.33-21.44-.09-42.89-.09-64.34Zm32.05,0v-3.53c0-20,0-39.95,0-59.92,0-6.9-5.12-11.32-11.36-10.1-5,1-7.5,4.72-7.5,11.32q0,61.68,0,123.38a34.72,34.72,0,0,0,.21,4,7.73,7.73,0,0,0,5.1,6.6c7.07,2.92,13.53-1.35,13.55-9.13C178.51,298.15,178.47,277.3,178.47,256.44Z"></path> <path class="cls-1" d="M436.37,256.58c0-21.3-.18-42.6.06-63.9.2-17.73,18.22-28.64,33.23-20.26,7.58,4.24,11.93,10.9,11.95,19.71q.13,64.13,0,128.24a22.34,22.34,0,0,1-22.11,22.25c-12.58.18-22.78-9-23-21.71-.32-21.44-.08-42.89-.08-64.33Zm32.05,0v-3.52c0-20,0-40,0-59.93,0-6.9-5.12-11.31-11.36-10.09-4.95,1-7.5,4.71-7.5,11.31q0,61.69,0,123.38a34.6,34.6,0,0,0,.21,3.95,7.74,7.74,0,0,0,5.1,6.61c7.06,2.91,13.53-1.36,13.55-9.14C468.46,298.29,468.42,277.43,468.42,256.57Z"></path> <path class="cls-1" d="M133.64,256.27c0,12.34.13,24.67,0,37-.16,11.94-8.67,20.94-20.71,22.29-10.69,1.21-21.11-6.32-23.83-17.33a21.71,21.71,0,0,1-.58-5.22c0-24.67-.11-49.33,0-74,.06-11.89,8.58-21.07,20.5-22.55,10.56-1.31,21,6.22,24,17.15a26.52,26.52,0,0,1,.63,7q0,17.85,0,35.68ZM120.42,256c0-11.88,0-23.77,0-35.65,0-6.43-3.63-10.55-9.16-10.67-5.77-.13-9.61,4-9.62,10.66q-.06,35.64,0,71.29c0,6.95,3.33,10.46,9.6,10.39,6-.08,9.16-3.6,9.19-10.38C120.45,279.71,120.42,267.83,120.42,256Z"></path> <path class="cls-1" d="M378.42,256.06c0-6.89-.12-13.79,0-20.68a22.56,22.56,0,0,1,45.11.15q.26,20.46,0,40.93a22.56,22.56,0,0,1-45.12-.15C378.31,269.56,378.42,262.81,378.42,256.06Zm13.15-.37c0,6.6-.08,13.2,0,19.79.09,6.09,3.78,10,9.29,10.08s9.42-4,9.47-9.9q.13-19.57,0-39.15c0-6-3.89-10.06-9.3-10.08s-9.36,3.92-9.46,9.91C391.49,242.78,391.57,249.24,391.57,255.69Z"></path> </svg> 