<?xml version="1.0" encoding="UTF-8"?> <svg xmlns="http://www.w3.org/2000/svg" id="_Слой_2" data-name="Слой 2" viewBox="0 0 450.35 450.8"><defs><style> .cls-1 { fill: #fff; } </style></defs><g id="_Слой_1-2" data-name="Слой 1"><g><path class="cls-1" d="m77.04,110.86c3.04,2.97,3.67,6.13,1.26,9.9-13.18,20.61-15.65,43.17-12.47,66.92,4.63,34.63,21.56,62.75,45.37,87.34,21.93,22.64,47.12,41.3,72.88,59.23,1.23.85,2.08,1.56,3.75.17,14.92-12.4,25.38-13.51,42.11-4.76.22.12.55.05,1.34.11v-7.37c0-42.32,0-84.64,0-126.96,0-1.04-.01-2.07,0-3.11.12-7.2,3.98-9.79,10.79-7.08,31.69,12.6,63.34,25.29,95.04,37.86,6.51,2.58,5.3,3.46,7.84-3.42,8.59-23.26,12.76-47.06,7.27-71.75-8.83-39.69-44.74-68.23-84.76-67.1-18.52.52-35.26,6.78-50.38,17.4-6.93,4.87-7.89,4.86-14.88,0-16.45-11.43-34.43-18.08-54.72-17.64-17.15.37-32.24,6.65-46.24,16.02-3.94,2.64-7.84,4.15-12.33,1.46-2.56-5.35-1.89-8.57,3.66-12.41,10.65-7.36,22.29-12.78,34.95-15.6,28.19-6.28,54.23-.57,78.32,14.82,2.73,1.74,4.52,1.99,7.34.12,62.13-41.11,142.37-5.4,153.44,68.33,3.71,24.73-.77,48.54-9.5,71.7-1.98,5.26-2.1,5.24,3.25,7.39,10.81,4.34,21.58,8.77,32.46,12.92,4.36,1.66,6.21,4.37,6.21,9-.07,54.16.04,108.32-.09,162.48-.04,18.38-12.47,31.92-30.38,33.79-15.49,1.62-30.6-9.38-34.42-25.31-2.01-8.37-.86-16.44,3.49-23.96,2.75-4.75,5.76-5.88,9.76-3.74,3.82,2.05,4.49,5.48,1.99,10.2-6.47,12.23-.46,26.26,12.4,28.93,10.95,2.28,21.66-4.99,23.22-15.75,1.7-11.74-6.02-21.47-17.75-22.36-4.92-.38-8.01-2.98-7.88-6.65.16-4.6,3.13-7,8.38-6.92,6.38.1,11.98,2.61,17.26,5.71,1.23-.98.74-2.1.74-3.04.03-28.86-.01-57.71.09-86.57,0-2.74-.65-4.17-3.4-5.15-6.1-2.19-12.06-4.77-18.04-7.3-4.56-1.93-6.02-5.06-4.42-9.05,1.52-3.78,4.58-5.04,9.15-3.4,5.24,1.88,10.39,4.02,16.27,6.31,0-8.27-.02-16.16.02-24.05,0-1.56-1.06-1.96-2.16-2.39-45.69-18.27-91.39-36.54-137.09-54.8-.26-.1-.57-.06-1.51-.15,0,7.78-.04,15.5.03,23.23.02,2.23,2.2,2.11,3.56,2.66,29.2,11.9,58.43,23.74,87.64,35.6,3,1.22,6.05,2.35,8.96,3.77,3.35,1.64,4.78,4.39,3.43,8.06-1.41,3.86-4.63,5.46-8.51,4.15-3.35-1.13-6.64-2.46-9.86-3.92-1.87-.85-3.1-.84-4.59.84-22.79,25.8-49.88,46.55-77.94,66.16-2.19,1.53-3.1,3.11-3.03,5.78.15,5.61.47,11.28-.84,16.8-4.09,17.22-21.01,28.35-37.88,25.01-18.09-3.58-29.64-20.23-26.3-38.48.55-2.99-.36-4.13-2.47-5.59-26.33-18.15-51.97-37.16-74.35-60.19-22.62-23.28-40.04-49.61-47.2-81.81-5.94-26.7-6.48-53.06,5.68-78.45,1.72-3.59,3.66-7.08,5.71-10.49,2.91-4.83,4.81-5.38,10.31-3.46Zm167.44,172.75h.04c0,13.3,0,26.61.02,39.91,0,.98-.04,2.26.51,2.88.72.81,1.58-.27,2.24-.74,23.09-16.55,45.39-34.04,64.77-54.98,2.16-2.33,1.11-2.72-1.06-3.6-20.92-8.46-41.82-16.94-62.67-25.56-3.14-1.3-3.97-.86-3.92,2.63.16,13.15.07,26.31.07,39.46Zm-33.56,92.58c11.38-.03,19.85-8.19,19.88-19.15.03-10.7-8.66-19.46-19.31-19.49-10.71-.02-19.42,8.64-19.44,19.36-.02,10.62,8.47,19.31,18.87,19.28Z"></path><path class="cls-1" d="m366.18,0c.95.31,2.24.63,3.45,1.15,40.32,17.46,66.97,47.22,80.08,89.12.91,2.92,1.24,5.89-1.6,8.09-2.26,1.74-4.73,2.29-7.46,1-2.44-1.15-3.14-3.43-3.78-5.7-7.37-25.89-22.42-46.58-43.12-63.37-8.87-7.2-18.76-12.73-29.33-17.08-5.45-2.24-6.71-7.41-2.94-11.23,1.19-1.21,2.67-1.8,4.7-1.99Z"></path><path class="cls-1" d="m7.01,299.99c3.43.04,5.07,2.56,6.24,5.89,5.16,14.64,12.99,27.74,23.33,39.32,14.61,16.38,31.88,28.84,52.84,35.89,2.93.99,5.98,1.9,6.55,5.74.83,5.7-3.74,9.19-9.65,7.22-25.65-8.56-46.53-23.94-63.56-44.74-9.81-11.98-17.31-25.28-22.24-39.98-1.71-5.09.96-9.19,6.5-9.34Z"></path><path class="cls-1" d="m356.35,30.1c.97.34,2.38.75,3.71,1.33,29.4,12.94,48.84,34.83,58.58,65.37,1.66,5.2.23,8.45-3.88,9.68-4.27,1.28-7.07-.53-8.69-5.67-8.52-26.87-25.62-46.05-51.45-57.36-3.53-1.54-5.75-3.75-4.88-7.79.68-3.17,2.76-5.13,6.61-5.57Z"></path><path class="cls-1" d="m37.51,291.17c3.18.15,4.92,2.36,6.07,5.58,6.26,17.49,17.34,31.36,32.21,42.3,6.81,5.01,14.24,8.84,22.24,11.62,5.35,1.86,7.11,4.98,5.49,9.27-1.45,3.86-4.85,5.02-10.01,3.1-30.08-11.19-50.84-31.83-62.34-61.76-2.13-5.56.6-10.03,6.33-10.11Z"></path><path class="cls-1" d="m389,106.47c.04,3.93-2.12,6.12-5.8,6.57-3.7.45-6.36-1.17-7.11-5.04-1.92-9.89-6.55-18.26-13.86-25.18-5.02-4.75-10.84-8.06-17.39-10.25-3.76-1.26-5.14-4.46-4.03-8.18,1.05-3.53,4.12-5.16,8.03-4.26,18.53,4.22,37.84,25.97,39.99,45.03.05.44.12.88.18,1.32Z"></path><path class="cls-1" d="m111.3,327.32c-.03,5.07-4.12,7.74-9.78,6.16-13-3.62-23.35-11.15-31.48-21.81-4.53-5.94-7.68-12.58-9.47-19.84-1.03-4.18.56-7.37,4.18-8.51,3.85-1.21,7.34.63,8.53,4.87,4.81,17.11,15.95,27.86,32.82,32.84,3.31.98,4.97,2.95,5.19,6.29Z"></path><path class="cls-1" d="m269.5,104.65c12.14,2.09,24.29,7.48,34.78,16.36,15,12.7,22.3,29.41,24.63,48.57.47,3.88-1.79,6.66-5.53,7.24-4.03.62-6.85-1.36-7.54-5.55-.79-4.81-1.48-9.64-3.02-14.28-7.12-21.43-22.41-33.69-43.89-38.98-1-.25-2.04-.35-3.03-.63-3.78-1.04-5.32-3.71-4.69-7.38.63-3.64,2.91-5.72,8.29-5.35Z"></path></g></g></svg> 