<?xml version="1.0" encoding="UTF-8"?> <svg xmlns="http://www.w3.org/2000/svg" id="_Слой_2" data-name="Слой 2" viewBox="0 0 467.17 467.15"><defs><style> .cls-1 { fill: #fff; } </style></defs><g id="_Слой_1-2" data-name="Слой 1"><g><path class="cls-1" d="m0,332.11c2.74-2.93,6.33-4.44,9.91-6.01,29.14-12.75,58.27-25.54,87.41-38.32.14-.06.27-.13.41-.19,6.25-2.74,10.12-1.96,11.98,2.42,1.84,4.32-.2,7.41-6.74,10.28-28.3,12.41-56.6,24.82-84.9,37.24-1.39.61-2.77,1.23-4.16,1.83-7.88,3.42-8.51,3.3-13.92-2.68v-4.56Z"></path><path class="cls-1" d="m233.59,467.15c-4.34-2.75-4.92-6.85-4.92-11.65,0-23.08-.29-46.16-.56-69.23-.05-3.85.9-7.02,4.76-8.4,4.81-1.71,8.9,1.83,8.96,7.68.23,22.32.41,44.64.61,66.96,0,1.06-.09,2.14.05,3.19.77,5.77-1.05,9.91-7.08,11.46h-1.82Z"></path><path class="cls-1" d="m83.03,467.15c-5.55-5.94-5.59-7.32-.43-14,9.65-12.49,19.3-24.97,28.95-37.46.37-.48.74-.96,1.14-1.42,2.96-3.45,6.91-4.17,10.01-1.82,3.11,2.36,3.54,6.46.87,10.11-2.78,3.79-5.71,7.47-8.59,11.19-6.78,8.76-13.54,17.53-20.37,26.26-1.93,2.46-4.06,4.76-6.09,7.14h-5.47Z"></path><path class="cls-1" d="m380.5,467.15c-10.77-12.32-20.17-25.73-30.36-38.52-1.51-1.9-3-3.81-4.44-5.77-2.85-3.86-2.67-7.43.47-10.04,3.31-2.76,7.22-2.26,10.25,1.59,8.7,11.1,17.3,22.28,25.93,33.43,1.58,2.04,3.14,4.09,4.72,6.13,4.7,6.09,4.28,8.86-2.01,13.17h-4.56Z"></path><path class="cls-1" d="m0,180.65c2.92-4.19,6.59-4.77,11.43-3.34,11.02,3.26,22.2,5.98,33.29,9.01,4.98,1.36,6.99,4.42,5.8,8.58-1.14,3.97-3.84,5.98-7.87,4.96-12.75-3.25-25.44-6.74-38.16-10.12-2.05-.54-2.97-2.43-4.49-3.6v-5.47Z"></path><path class="cls-1" d="m325.58,341.35c-6.1-.1-7.81-1.49-8.81-7.43-2.78-16.45-5.42-32.93-8.33-49.36-.87-4.95.35-8.53,4.02-12.15,21.77-21.42,43.29-43.09,64.94-64.63,1.16-1.15,2.69-1.94,4.04-2.89-.26-.43-.52-.86-.78-1.29-12.36-1.87-24.73-3.76-37.09-5.61-19.51-2.92-39.01-5.9-58.54-8.66-4.22-.6-6.73-2.56-8.55-6.38-13.33-27.9-26.81-55.74-40.25-83.59-.72-1.49-1.49-2.94-2.34-4.63-1.8,1.15-2.14,3.03-2.88,4.56-13.41,27.7-26.84,55.39-40.07,83.17-1.97,4.13-4.56,6.39-9.14,6.96-8.43,1.04-16.81,2.49-25.22,3.72-4.38.64-6.86-1.6-8.15-5.55.52-6.08,1.45-7.2,7.53-8.22,6.43-1.07,12.88-2.12,19.36-2.86,2.81-.32,4.1-1.68,5.25-4.07,15.18-31.69,30.47-63.33,45.66-95.01,1.59-3.32,3.33-6.25,7.53-6.18,3.95.07,5.65,2.88,7.16,6.04,15.21,31.68,30.5,63.32,45.65,95.02,1.25,2.61,2.7,3.76,5.63,4.18,33.94,4.94,67.85,10.06,101.78,15.11,3.21.48,6.51.84,8.07,4.2,1.83,3.95-.07,6.86-2.87,9.65-21.98,21.86-43.89,43.79-65.82,65.7-3.65,3.65-9,6.76-10.45,11.14-1.44,4.35,1.02,10.01,1.84,15.08,1.87,11.53,3.67,23.08,5.72,34.58.82,4.6-.4,7.74-4.88,9.39Z"></path><path class="cls-1" d="m134.37,189.62c-.63,6.14-1.99,7.29-9.15,8.31-12.9,1.83-25.79,3.74-38.78,5.63.46,2.01,2.03,2.85,3.16,3.98,21.69,21.72,43.34,43.48,65.21,65.02,3.7,3.64,4.7,7.3,3.85,12.21-5.43,31.55-10.71,63.12-16.02,94.69-.09.56-.01,1.16-.01,2.16,6.66-3.58,13.05-7,19.44-10.44,22.03-11.86,44.1-23.65,66.06-35.64,3.93-2.15,7.22-2.05,11.08.05,27.06,14.68,54.19,29.21,81.3,43.79,1.19.64,2.41,1.24,4.22,2.17-.79-4.87-1.46-9.25-2.22-13.61-.99-5.69.02-7.53,5.51-9.71,4.9,0,7.38,2.33,8.06,7.31,1.22,8.86,2.84,17.67,4.39,26.49.58,3.28.09,6.07-2.79,8.04-2.91,1.99-5.65,1.19-8.52-.36-30.66-16.57-61.38-33.04-92.02-49.67-2.59-1.41-4.42-1.41-7.02,0-29.57,16.05-59.22,31.95-88.85,47.89-1.47.79-2.89,1.68-4.4,2.38-5.74,2.68-11.16-1.03-10.23-7.29,1.81-12.31,3.94-24.57,5.99-36.84,3.98-23.79,7.92-47.59,12.08-71.36.49-2.78-1.06-3.86-2.5-5.3-24.72-24.71-49.46-49.41-74.18-74.11-1.6-1.6-3.32-3.07-3.49-5.64-.27-4.04,1.73-7.02,6.07-7.69,18.75-2.87,37.52-5.63,56.31-8.27,4.15-.58,6.44,1.98,7.43,5.82Z"></path><path class="cls-1" d="m311.07,148.44c-2.25-.34-4.43-1.43-5.61-4.1-1.18-2.69-.7-5.1,1.17-7.17,2.95-3.27,6.03-6.42,9.07-9.59,27.34-28.48,54.68-56.96,82.03-85.43.84-.88,1.65-1.81,2.6-2.55,2.95-2.32,5.99-2.09,8.66.34,2.81,2.55,3.49,5.63,1.11,8.92-.71.98-1.57,1.85-2.41,2.73-29.54,30.79-59.09,61.56-88.64,92.34-2.1,2.19-4.08,4.6-7.98,4.51Z"></path><path class="cls-1" d="m161.66,140.96c0,3.29-1.48,5.29-3.88,6.64-2.51,1.41-4.96,1.14-7.18-.71-.58-.48-1.13-1.02-1.64-1.57-29.72-31.68-59.44-63.35-89.13-95.05-3.29-3.52-3.36-7.08-.45-10.03,2.84-2.88,6.65-3.01,9.66-.02,3.66,3.63,7.13,7.47,10.66,11.23,26.08,27.8,52.17,55.6,78.24,83.4,1.75,1.86,3.83,3.57,3.71,6.11Z"></path><path class="cls-1" d="m466.68,338.63c-.06,7.04-5.07,9.9-10.72,7.27-14.29-6.64-28.52-13.4-42.78-20.11-18.64-8.78-37.27-17.6-55.95-26.28-3.8-1.76-5.98-4.16-4.98-8.48,1.08-4.69,5.44-6.44,10.43-4.1,18.81,8.79,37.58,17.65,56.36,26.48,14.12,6.64,28.24,13.28,42.36,19.92,2.88,1.35,5.34,3.01,5.27,5.31Z"></path><path class="cls-1" d="m53.15,128.18c.92.31,2.26.62,3.46,1.21,15.39,7.5,30.77,15,46.12,22.6,4.78,2.37,6.06,6.02,3.83,9.97-1.88,3.32-5.23,4.53-9.01,2.7-15.95-7.72-31.86-15.55-47.74-23.43-3.03-1.5-4.44-4.06-3.51-7.55.88-3.29,2.95-5.2,6.84-5.5Z"></path><path class="cls-1" d="m420.6,135.89c-.07,2.2-1.4,4.15-3.74,5.31-16.02,7.92-32.04,15.85-48.14,23.62-3.63,1.75-7.21.21-8.86-3.17-1.73-3.56-.6-7.33,3.17-9.2,15.73-7.82,31.49-15.59,47.32-23.23,5.16-2.49,10.27.76,10.25,6.68Z"></path><path class="cls-1" d="m154.3,38.47c2.48.16,4.51,1.48,5.69,4.1,6.51,14.51,13.1,28.99,19.5,43.56,1.74,3.97.18,7.36-3.57,9.03-3.71,1.65-7.09.45-8.95-3.63-6.51-14.35-12.96-28.73-19.28-43.16-2.22-5.07.95-9.83,6.61-9.89Z"></path><path class="cls-1" d="m293.36,95.86c-4.77.08-8.4-4.57-6.46-9.08,6.46-14.98,13.18-29.85,20-44.68,1.69-3.68,5.3-4.56,8.86-2.83,3.79,1.84,4.93,5.11,2.96,9.58-5.73,13-11.57,25.94-17.37,38.91-.68,1.52-1.28,3.08-2.08,4.53-1.27,2.28-3.25,3.53-5.9,3.58Z"></path><path class="cls-1" d="m108.46,341.22c-.19,2.12-1.07,3.81-2.55,5.25-10.9,10.57-21.76,21.18-32.71,31.7-3.35,3.22-7.16,3.1-10,.04-2.9-3.12-2.76-6.6.7-9.98,10.73-10.52,21.55-20.96,32.32-31.44,2.43-2.36,5.21-3.15,8.31-1.72,2.55,1.18,3.73,3.44,3.93,6.16Z"></path><path class="cls-1" d="m400.43,373.04c-.36,2.67-1.61,4.88-4.11,6.1-2.71,1.33-5.35,1-7.56-1.12-5.04-4.83-10.02-9.73-15.04-14.58-5.67-5.49-11.38-10.94-17.01-16.47-3.59-3.53-3.87-7.26-.93-10.34,2.99-3.14,6.69-3.06,10.36.46,10.51,10.1,20.94,20.27,31.41,30.41,1.57,1.52,2.79,3.2,2.87,5.55Z"></path><path class="cls-1" d="m226.73,27.35c0-6.53-.08-13.06.03-19.59.09-5.2,2.51-7.8,6.89-7.75,4.36.04,6.75,2.65,6.78,7.89.08,12.91.09,25.82,0,38.73-.04,4.88-2.92,8-6.9,7.96-3.98-.05-6.69-3.15-6.77-8.09-.1-6.38-.03-12.76-.02-19.14Z"></path><path class="cls-1" d="m396.35,255.63c13.81,1.1,27.26,2.11,40.7,3.29,4.43.39,6.69,3.19,6.39,7.2-.32,4.19-3.27,6.7-7.81,6.35-13.3-1.01-26.59-2.07-39.88-3.2-4.45-.38-6.84-3.06-6.63-7.02.21-4.2,3.1-6.72,7.24-6.63Z"></path><path class="cls-1" d="m65.66,255.63c4.41.05,7.16,2.6,7.33,6.61.16,3.89-2.06,6.64-6.17,6.99-13.6,1.18-27.21,2.29-40.83,3.26-4.04.29-7.25-2.66-7.57-6.34-.3-3.53,2.22-6.78,6.14-7.14,13.75-1.24,27.51-2.27,41.09-3.37Z"></path><path class="cls-1" d="m423.95,200.06c-4.68-.12-7.17-2.2-7.67-5.95-.51-3.82,1.55-6.43,5.24-7.45,9.64-2.67,19.32-5.24,28.98-7.83,2.64-.71,5.27-1.44,7.93-2.03,4.27-.94,7.3.82,8.43,4.76,1.07,3.73-.78,7.13-4.97,8.31-10.07,2.84-20.19,5.48-30.3,8.19-2.78.75-5.56,1.46-7.65,2Z"></path><path class="cls-1" d="m180.43,444.72c-4.25-.12-7.61-3.87-6.29-8.08,3.52-11.25,7.4-22.39,11.47-33.46,1.26-3.41,4.6-4.41,8.02-3.41,3.49,1.02,5.13,3.72,4.64,7.34-.26,1.92-1.01,3.79-1.65,5.64-2.99,8.72-6.03,17.43-9,26.16-1.19,3.49-3.24,5.78-7.18,5.8Z"></path><path class="cls-1" d="m296.15,436.1c-.2,3.38-1.99,5.63-5.31,6.4-3.73.87-6.59-.41-8-4.14-3.06-8.05-6.08-16.11-9.1-24.18-.9-2.4-2.02-4.77-2.58-7.25-.82-3.61.83-6.15,4.24-7.54,3.47-1.41,6.82-.67,8.16,2.65,4.41,10.92,8.33,22.04,12.42,33.08.1.28.11.59.17.97Z"></path><path class="cls-1" d="m280.26,308.57c.02,6.18-5.24,9.16-10.91,6.17-10.73-5.67-21.42-11.4-32.01-17.31-2.69-1.5-4.75-1.49-7.42,0-10.33,5.77-20.8,11.27-31.19,16.93-2.98,1.62-5.91,2.44-8.97.34-3.14-2.15-3.14-5.31-2.59-8.58,1.93-11.52,3.76-23.07,5.92-34.55.7-3.76.27-6.43-2.71-9.24-8.4-7.92-16.38-16.28-24.63-24.36-2.57-2.52-4.39-5.2-3.07-8.84,1.23-3.41,4.12-4.35,7.56-4.82,12.03-1.64,24.01-3.64,36.04-5.28,2.4-.33,3.34-1.61,4.23-3.47,5.29-11.08,10.64-22.13,15.9-33.23,1.52-3.22,3.39-5.77,7.4-5.67,3.79.09,5.52,2.6,6.97,5.63,5.15,10.81,10.45,21.55,15.51,32.41,1.27,2.73,2.71,4.07,5.96,4.47,11.89,1.49,23.72,3.5,35.58,5.23,3.08.45,5.65,1.61,6.73,4.64,1.14,3.2-.06,5.89-2.42,8.22-8.53,8.45-16.89,17.07-25.58,25.35-2.68,2.56-3.2,5.01-2.57,8.44,2.14,11.64,4.04,23.32,6.02,34.99.15.9.19,1.81.26,2.52Zm-76.63-12.8c8.37-3.55,16.14-8.26,24.06-12.65,4.2-2.33,7.68-2.32,11.88,0,7.93,4.36,15.66,9.13,24.06,12.59l.58.33c-.05-.26-.1-.51-.15-.77-1.05-6.9-2.08-13.8-3.17-20.69-2.39-15.14-4.1-11.26,7.37-22.81,4.96-5,10.03-9.9,15.73-15.52-10.35-1.6-19.45-3.27-28.63-4.32-4.68-.54-7.32-2.63-9.21-6.81-3.85-8.5-8.08-16.82-12.19-25.27-1.61.81-1.76,2.11-2.26,3.13-3.72,7.63-7.46,15.26-11.05,22.95-1.62,3.47-3.98,5.5-7.92,5.87-4.38.42-8.72,1.19-13.07,1.86-5.13.79-10.25,1.64-16.22,2.61,7.59,7.58,14.4,14.49,21.36,21.24,2.8,2.71,3.58,5.67,2.9,9.46-1.67,9.41-3.06,18.86-4.56,28.3-.35.29-.45.62-.03.91.05.03.34-.27.52-.42Z"></path><path class="cls-1" d="m203.63,295.77c-.18.15-.47.46-.52.42-.42-.29-.32-.62.03-.91.16.16.33.32.48.49Z"></path><path class="cls-1" d="m264.06,295.26c.05.26.1.51.15.77-.19-.11-.39-.22-.58-.33.14-.15.28-.3.43-.44Z"></path></g></g></svg> 