<?xml version="1.0" encoding="UTF-8"?> <svg xmlns="http://www.w3.org/2000/svg" id="_Слой_2" data-name="Слой 2" viewBox="0 0 482.76 482.76"><defs><style> .cls-1 { fill: #fff; } </style></defs><g id="_Слой_1-2" data-name="Слой 1"><g><path class="cls-1" d="m49.97,297.92c-2.06-8.1-1.89-8.54,5.37-13.3,15.6-10.22,32.72-16.3,51.02-18.73.54-.81.19-1.31-.18-1.81-12.93-17.53-19.19-37.2-18.45-58.96.17-5.02-1.42-8.66-4.42-12.66-21.37-28.4-25.58-60-15.81-93.61,2.11-7.26,2.74-14.04,1.84-21.5-1.36-11.38-.94-22.87,1.08-34.25.5-2.82,1.72-4.91,3.8-6.76,16.63-14.86,36.47-23.5,57.55-29.69,9.64-2.83,19.5-4.66,29.5-5.73.74-.08,1.61.1,1.87-.93,9.11,0,18.23,0,27.34,0,5.87,1.22,11.77,2.3,17.6,3.67,51.61,12.12,90.98,57.53,95.72,110.16,3.01,33.39-5.79,63.31-26.04,89.94-1.05,1.38-2.01,2.69-2.02,4.61-.13,21.06-6.7,39.98-19.64,57.29,14.02,1.9,27.19,5.21,39.28,11.6,42.88,22.67,66.14,58.14,67.53,106.81.86,29.98.19,60.01.17,90.02,0,6.11-2.47,8.59-8.53,8.62-9.74.05-19.48-.02-29.22.03-4.43.02-7.16-1.87-7.77-6.41.7-6.1,2.37-7.7,8.3-7.74,6.12-.04,12.26-.21,18.37.07,3.63.16,4.8-.82,4.78-4.64-.18-26.54-.15-53.07-.06-79.61.02-5.21-.42-10.37-1.25-15.46-7.14-44.12-41.12-79.3-84.73-87.79-3.82-.74-7.72-2.03-12.25-.71,1.52,1.6,2.67,2.85,3.86,4.06,17.07,17.34,34.16,34.67,51.22,52.02,5.08,5.17,4.77,9.24-.79,13.79-17.98,14.7-35.89,29.46-53.92,44.1-2.39,1.94-2.42,3.27-.61,5.72,8.11,10.98,16.01,22.11,23.93,33.23,4.82,6.76,4.07,10.22-2.87,14.51-10.74,6.64-21.45,13.31-33.32,20.69,2.89,0,4.39,0,5.9,0,14.92,0,29.83-.02,44.75.01,5.95.01,7.63,1.64,8.31,7.72-.71,5.12-4.03,6.46-8.72,6.45-33.62-.07-67.24-.04-100.86-.04-58.91,0-117.83,0-176.74,0-9.12,0-10.85-1.77-10.85-11.07,0-28.59-.11-57.19.04-85.78.14-26.2,8.18-49.85,23.33-71.24,3.97-5.6,7.93-9.68,15.29-6.22,2.2,5.6.03,9.79-3.43,14.38-13.8,18.35-20.76,39.28-21,62.21-.28,26.22.01,52.45-.16,78.67-.03,3.87.92,5,4.9,4.98,33.76-.16,67.52-.09,101.28-.12,1.1,0,2.38.48,3.55-.72-11-6.79-21.79-13.48-32.62-20.12-6.64-4.07-7.47-7.49-2.97-13.8,8.1-11.37,16.22-22.73,24.49-33.98,1.7-2.31,1.55-3.59-.64-5.38-17.88-14.57-35.66-29.26-53.53-43.84-6.33-5.16-6.63-8.9-.78-14.69,17.42-17.22,34.87-34.41,52.26-51.65,1.14-1.13,2.92-1.93,2.86-4.04-1.87-.86-3.78-.45-5.56-.2-15.88,2.28-30.81,7.32-44.14,16.38-4.39,2.98-8.43,4.6-13.24,1.42Zm225.9-118.57c2.15-1.42,2.67-2.9,3.31-4.26,8.91-19.01,13-38.89,10.58-59.89-4.6-39.93-24.81-69.5-60.02-88.51-25.9-13.99-53.59-15.36-81.93-9.3-21.69,4.64-42.26,11.91-60.03,25.74-2.48,1.93-3.86,3.99-4.21,7.34-1.28,12.11-1.17,24.15,1.28,36.08,4.73,23.07,16.88,40.28,39.56,48.86,11.44,4.33,23.41,5.97,35.55,5.97,33.61,0,67.22.33,100.83-.53,14.48-.37,15.08.43,15.08,15.05,0,7.59,0,15.19,0,23.45Zm-173.81-39.73c0,25.58-1.18,50.58.28,75.43,2.2,37.61,33.75,69.04,70.5,72.4,48.18,4.41,87.7-30.82,88.59-79.18.3-16.33-.04-32.66.14-48.99.04-3.36-.98-4.55-4.23-4.1-1.23.17-2.51.08-3.76.08-32.5.05-65.01.4-97.51.04-19.06-.21-37.3-4.4-54.01-15.69Zm101.36,327.12c3.87-.69,8.68,1.28,13.1-1.48,13.31-8.32,26.6-16.67,40.07-24.73,3.46-2.07,3.13-3.4.98-6.3-8.06-10.82-15.86-21.85-23.66-32.86-3.97-5.61-3.69-8.03,1.59-12.39,17.3-14.3,34.7-28.47,51.97-42.8,1.76-1.46,5.64-2.51,1.84-6.28-17.39-17.27-34.61-34.72-51.83-52.16-1.55-1.57-2.68-2.12-4.73-.64-4.59,3.33-9.69,5.86-14.96,7.9-2.52.98-3.23,2.67-3.55,4.96-1.64,11.94-3.2,23.9-4.96,35.82-6.15,41.66-12.36,83.31-18.55,124.97-.86,5.79-.67,5.98,5.38,5.99,2.2,0,4.4,0,7.31,0Zm-43.54,0h3.77c9.04,0,9.3-.04,7.93-9.14-3.85-25.68-7.94-51.33-11.92-77-3.91-25.2-7.98-50.38-11.6-75.62-.91-6.37-2.44-11.38-9.39-13.22-2.05-.54-3.99-1.89-5.72-3.21-3.06-2.34-5.17-1.92-7.95.9-16.33,16.54-32.88,32.85-49.36,49.24-4.26,4.23-4.18,4.14.65,8.09,16.77,13.69,33.53,27.37,50.18,41.2,6.77,5.63,6.91,7.52,1.91,14.57-7.54,10.62-15.07,21.24-22.84,31.68-2.12,2.84-2.62,4.08,1.02,6.19,11.26,6.53,22.31,13.43,33.26,20.47,6.19,3.98,12.26,7.71,20.07,5.85Zm1.72-166.6c6.48,41.37,12.87,82.24,19.27,123.11,2.44-10,3.9-19.9,5.35-29.81,4.4-30.08,8.77-60.17,13.22-90.24.26-1.77.27-2.77-1.89-2.4-11.82,2.03-23.63,1.59-35.95-.67Zm-73.95-128.65c0-14.12,0-28.25,0-42.37,0-1.39.11-2.76-.8-4.06-2.74-3.94-5.38-7.95-8.24-12.22-4.29,20.86-1.42,40.3,9.05,58.65Z"></path><path class="cls-1" d="m482.76,334.7c-5.47,6.3-8.39,6.37-14.44.33-.11-.11-.22-.22-.33-.33q-5.92-5.91-12.04-.6c-3.82,3.32-6.82,3.25-11.26-.44-10.75-8.93-21.46-17.9-32.2-26.85-1.28-1.07-2.58-2.11-3.98-3.26-1.19,1.91-.68,3.65-.68,5.28-.03,54.2-.02,108.39-.04,162.59,0,1.88,0,3.78-.28,5.63-.56,3.74-3.26,5.35-6.66,5.4-3.39.05-6.16-1.47-6.86-5.16-.35-1.83-.33-3.75-.33-5.62-.02-58.59-.05-117.19.07-175.78,0-3.49-.96-5.79-3.7-7.94-6.18-4.84-12.14-9.96-18.12-15.05-1.75-1.49-3.56-2.17-5.91-2.27-24.79-1.06-43.87-21.56-43.44-46.53.42-24.58,20.32-44.55,44.75-44.92,25.12-.38,45.55,18.8,46.62,43.91.09,2.19.78,3.84,2.16,5.47,6.69,7.91,13.32,15.88,19.93,23.86,3.82,4.61,3.78,6.9,0,11.52-4.49,2.4-7.91,1.15-10.95-2.77-4.03-5.19-8.33-10.17-12.58-15.18-.86-1.02-1.97-3.27-3.34-.51-2.24,4.52-5.76,8.11-8.5,12.26-3.77,3.79-8.22,6.64-13.26,9.36,17.52,14.64,34.78,29.05,52.03,43.47,2.2,3.13,5.72,4.8,8.29,7.51,1.89,2,3.31,1.44,4.98-.39,2.53-2.78,5.16-5.5,7.99-7.97,2.25-1.96,2.37-3.43.36-5.7-4.68-5.28-9.02-10.86-13.67-16.16-3.29-3.75-3.8-7.35-.35-11.2,5.17-2.73,7.25-2.38,10.94,2,6.13,7.3,12.23,14.62,18.33,21.95,4.91,5.91,4.97,8.63-.8,13.87-3.29,2.98-3.74,4.89-.07,7.81,2.76,2.19,4.93,5.12,7.37,7.72v4.71Zm-114.92-78.27c17.66.14,31.68-13.43,31.89-30.86.21-17.79-13.54-31.96-31.18-32.12-17.44-.16-31.72,13.68-31.92,30.95-.2,17.79,13.55,31.9,31.21,32.03Z"></path><path class="cls-1" d="m482.76,138.59c-4.67,5.65-11.76,6.77-18.01,9.27-4.69,1.87-7.42,4.16-7.86,9.48-.37,4.48-1.86,8.87-2.82,13.31-.7,3.19-2.47,5.36-5.74,6.12-3.13.73-5.46-.6-7.41-2.93-3.62-4.33-7.38-8.55-10.86-12.99-1.66-2.12-3.46-2.72-6.03-2.39-5.44.7-10.92,1.13-16.37,1.75-3.43.39-6.24-.51-8.01-3.62-1.67-2.92-.93-5.6.73-8.37,3.45-5.74,9.58-11.08,9.73-17.27.14-5.96-4.57-12.05-7.23-18.06-1.37-3.1-1.68-6.08.72-8.78,2.39-2.69,5.4-2.69,8.65-1.84,4.99,1.31,10.1,2.24,15.02,3.79,3.16,1,5.25.23,7.51-1.95,3.83-3.71,7.97-7.09,11.89-10.7,2.46-2.27,5.25-2.94,8.23-1.67,3,1.28,4.35,3.81,4.39,7.15.03,2.66.91,5.38.57,7.96-1.28,9.56,3.18,14.99,11.64,18.57,4.28,1.81,8.78,3.96,11.26,8.46v4.71Zm-36.98-25.08c-6.47,8.82-14.52,10.22-24.29,6.14,6.5,8.78,5.39,16.71-1.41,24.76,10.62-3.34,17.6.4,22.37,9.58,2.26-4.66,1.46-9.49,4.25-13.01,2.94-3.73,8.17-3.6,12.57-6.91-10.67-2.84-14.47-9.9-13.49-20.55Z"></path><path class="cls-1" d="m361.14,0c5.09,2.83,7.4,8.02,9.46,12.82,3.36,7.82,8.82,10.47,16.84,9.86,3.25-.25,6.58.24,9.85.64,6.57.8,9.05,6.85,4.86,12.02-3.45,4.27-7,8.48-10.88,12.36-2.47,2.47-2.73,4.8-1.8,7.94,1.52,5.09,2.55,10.33,4.04,15.44.91,3.1.24,5.6-1.99,7.69-2.45,2.29-5.3,2.38-8.3,1.08-5.31-2.3-10.65-4.52-15.93-6.88-2-.89-3.57-.99-5.56.39-4.75,3.31-9.75,6.25-14.64,9.37-2.57,1.64-5.23,2.05-7.98.54-2.98-1.64-3.89-4.27-3.59-7.54.54-5.78.82-11.58,1.54-17.34.29-2.36-.34-3.75-2.15-5.18-4.55-3.59-8.9-7.44-13.42-11.07-2.63-2.11-3.6-4.71-2.79-7.89.77-3.04,2.84-4.7,5.97-5.2,1.85-.3,3.64-1.26,5.47-1.29,11.73-.19,17.78-6.6,20.25-17.56.88-3.89,2.57-7.66,6.03-10.2h4.71Zm14.92,60.97c-4.86-9.86-2.7-17.53,5.82-23.64-4.79-1.88-9.56-.11-13.43-2.43-4.05-2.43-4.91-7.44-8.5-11.51-1.33,10.89-7.63,16.13-18.51,16.68,9.94,5.1,12.51,12.75,9.65,23.13,7.91-7.76,15.97-8.32,24.96-2.23Z"></path><path class="cls-1" d="m193.71,29.14c3.98.49,8.4,2.16,12.75,3.9,21.4,8.54,39.17,21.61,51.53,41.43,1.71,2.74,2.46,5.47.49,8.32-1.66,2.4-4.1,3.24-6.98,3.06-2.51-.16-3.94-1.75-5.14-3.65-12.78-20.25-31.45-32.36-54.01-39.1-3.48-1.04-6.54-2.35-6.6-6.75-.06-4.69,2.55-7.37,7.95-7.2Z"></path><path class="cls-1" d="m179.89,240.83c6.28,0,12.56-.07,18.84.02,5.17.08,8.21,2.77,8.25,7.03.04,4.27-2.96,7.25-8.07,7.3-12.87.14-25.75.14-38.62,0-5.05-.06-8.14-3.14-8.05-7.35.09-4.21,3.2-6.91,8.34-6.98,6.44-.09,12.87-.02,19.31-.02Z"></path></g></g></svg> 