<?xml version="1.0" encoding="UTF-8"?> <svg xmlns="http://www.w3.org/2000/svg" id="_Слой_2" data-name="Слой 2" viewBox="0 0 440.2 442.49"><defs><style> .cls-1 { fill: #fff; } </style></defs><g id="_Слой_1-2" data-name="Слой 1"><g><path class="cls-1" d="m231.35,0c3.38,2.04,7.32,1.63,10.98,2.44,27.39,5.99,49.4,19.85,64.55,43.79,1.47,2.32,3.2,2.37,5.4,2.37,30.25-.03,60.5-.07,90.75,0,18.03.04,31.95,10.73,36.1,27.53.9,3.65,1.06,7.4,1.06,11.15,0,105.59,0,211.18,0,316.77,0,23.42-14.97,38.45-38.22,38.45-121.44,0-242.87,0-364.31,0-18.38,0-32.43-10.53-36.54-27.47-.74-3.05-1.02-6.27-1.05-9.41-.12-11.23-.05-22.47-.05-33.71,0-2.65.12-5.31,2.67-6.89,2.17-1.35,4.52-1.75,6.97-.53,2.53,1.26,3.3,3.43,3.3,6.06,0,11.09,0,22.18,0,33.28.01,16.58,9.08,25.7,25.55,25.7,118.7,0,237.4,0,356.1,0,3.6,0,7.21.04,10.8-.1,10.78-.4,19.76-8.45,21.28-19.1.33-2.27.47-4.59.47-6.88.02-105.3.01-210.6.03-315.9,0-5.56-.61-10.92-3.85-15.66-4.98-7.29-12.04-10.27-20.69-10.27-53.44,0-106.89-.04-160.33-.05-67.85-.01-135.7,0-203.55,0-16.76,0-25.81,9.09-25.81,25.93,0,81.53,0,163.07,0,244.6,0,1.73.04,3.46-.11,5.18-.31,3.4-2.43,5.28-5.67,5.37-3.2.09-6.05-.99-6.8-4.66-.29-1.39-.33-2.86-.33-4.29C.02,251.28,0,168.88.04,86.49c.01-22.75,15.2-37.88,37.93-37.9,29.67-.03,59.35-.03,89.02.03,2.47,0,4.07-.37,5.53-2.81,14.29-23.96,36.04-37.18,62.75-43.24,3.67-.83,7.62-.54,11.01-2.57h25.07Zm-84.92,48.32h146.17C260.25.81,176.32,1.31,146.42,48.32Z"></path><path class="cls-1" d="m220.23,410.66c-55.32,0-110.63,0-165.95,0-16.06,0-24.35-8.36-24.35-24.55,0-53.01,0-106.02,0-159.04,0-15.23,8.63-23.92,23.73-23.92,110.92,0,221.84,0,332.77,0,15.12,0,23.94,8.74,23.94,23.74,0,53.44,0,106.89,0,160.33,0,14.62-8.75,23.42-23.32,23.43-55.61.01-111.21,0-166.81,0Zm-85.81-13.04c11.02,0,20.95-.11,30.87.07,3.01.05,5.06-.96,7.14-3.05,58.2-58.29,116.45-116.52,174.68-174.79.96-.96,2.37-1.64,2.62-3.66-9.86,0-19.6.15-29.33-.08-3.48-.08-5.84,1.09-8.26,3.51-57.88,58-115.83,115.92-173.76,173.87-1.09,1.09-2.14,2.23-3.96,4.14Zm-52.32,0c10.22,0,20-.11,29.78.07,3,.05,5.06-.93,7.15-3.02,58.2-58.3,116.47-116.54,174.7-174.82.95-.95,2.39-1.62,2.53-3.66-9.71,0-19.31.14-28.9-.07-3.46-.08-5.87,1-8.3,3.44-57.88,58.01-115.85,115.94-173.78,173.9-1.08,1.08-2.49,1.93-3.17,4.17Zm105.78,0c11.59,0,22.1-.04,32.6.04,2.01.02,3.15-1.12,4.37-2.35,56.53-56.53,113.06-113.06,169.59-169.6,2.96-2.96,2.75-5.19-.62-7.73-1.8-1.36-3.88-1.79-6.1-1.79-4.61.01-9.23.21-13.82-.07-3.47-.21-5.86.99-8.3,3.43-57.99,58.12-116.07,116.16-174.12,174.23-.99.99-1.91,2.04-3.6,3.84Zm55.87-179.81c-.36-.54-.72-1.08-1.08-1.62-9.61,0-19.22.11-28.83-.06-3.26-.06-5.62.83-7.95,3.21-11.89,12.14-23.97,24.09-35.99,36.11-41.45,41.45-82.9,82.89-124.34,124.34-4.43,4.43-3.55,13.6,1.54,16.6,4.69,2.77,15.31,1.44,19.15-2.4,57.84-57.84,115.68-115.69,173.55-173.5,1.11-1.11,2.62-1.8,3.94-2.69Zm153.5,25.32c-51.49,51.49-102.98,102.98-154.47,154.47,10.28,0,21.02-.01,31.76.01,1.68,0,2.55-1.18,3.55-2.17,39.01-38.99,78.01-77.98,117-116.98,1-1,2.18-1.87,2.18-3.55-.03-10.74-.01-21.48-.01-31.78ZM42.96,361.66c48.3-48.3,97.01-97,145.48-145.47-9.2,0-19.23.07-29.27-.05-2.53-.03-4.31.78-6.03,2.58-4.48,4.68-9.12,9.2-13.7,13.78-31.14,31.14-62.28,62.28-93.41,93.43-1.49,1.49-3.17,2.73-3.14,5.33.13,10.5.05,21,.05,30.41Zm354.28-65.72c-33.92,33.93-67.74,67.76-101.65,101.66,10.6,0,21.48,0,32.37,0,1.67,0,2.54-1.21,3.54-2.21,21.2-21.18,42.38-42.36,63.56-63.56,1-1,2.19-1.87,2.19-3.55-.02-10.87-.01-21.75-.01-32.35Zm-354.28,12.3c30.58-30.57,61.55-61.54,92.06-92.04-9.27,0-19.62.04-29.98-.03-1.91-.01-3.23.77-4.51,2.05-18.5,18.54-37.01,37.05-55.55,55.54-1.28,1.28-2.07,2.58-2.06,4.5.07,10.35.04,20.71.04,29.98Zm354.23,41.34c-16.03,16.04-32.02,32.03-47.94,47.95,13.26,0,27,.19,40.74-.11,4.18-.09,7.04-3.24,7.11-7.41.25-13.61.09-27.22.09-40.43ZM82.88,216.22c-10.74,0-21.35-.16-31.96.07-4.77.1-7.76,3.61-7.93,8.59-.14,4.03-.04,8.06-.04,12.1,0,6.39,0,12.78,0,19.24,13.43-13.45,26.51-26.55,39.93-39.99Z"></path><path class="cls-1" d="m219.85,191.38c-55.02,0-110.05-.29-165.07.18-16.62.14-25.45-11.25-25.02-25.07.65-21.01.15-42.06.18-63.09.02-14.34,8.8-23.1,23.16-23.11,91.32,0,182.65,0,273.97,0,6.61,0,9.63,3.13,8.18,8.31-.8,2.86-2.66,4.36-5.52,4.65-1.43.15-2.88.06-4.32.06-90.32,0-180.63,0-270.95,0-9.09,0-11.49,2.41-11.49,11.52,0,21.03-.01,42.06,0,63.09,0,7.61,2.78,10.4,10.44,10.4,111.2.01,222.4.01,333.6,0,7.37,0,10.23-2.87,10.23-10.18.02-21.61.02-43.21,0-64.82,0-7.01-3-9.98-9.97-10.01-7.49-.03-14.98.04-22.47-.02-4.7-.04-7.34-2.47-7.38-6.57-.04-4.08,2.57-6.4,7.42-6.43,8.07-.04,16.13-.09,24.2.01,11.82.14,21.2,9.29,21.27,21.06.14,22.9.12,45.81.01,68.71-.05,11.51-8.8,20.52-20.22,21.2-1.87.11-3.74.09-5.61.09-54.88,0-109.76,0-164.64,0Z"></path><path class="cls-1" d="m101.6,106.25c10.08,0,20.15-.03,30.23,0,5.62.02,7.87,2.22,7.88,7.8.04,14.54.04,29.07,0,43.61-.01,5.37-2.23,7.76-7.51,7.77-20.44.07-40.88.06-61.31,0-5.42-.02-7.65-2.21-7.68-7.63-.08-14.68-.09-29.36,0-44.04.03-5.38,2.33-7.5,7.74-7.52,10.22-.04,20.44-.01,30.66-.01Zm.1,12.96c-7.49,0-14.97.09-22.46-.05-2.46-.05-3.2.72-3.17,3.17.13,9.07.11,18.14,0,27.21-.02,2.21.63,3.02,2.93,3.01,14.97-.08,29.94-.09,44.92,0,2.35.02,2.87-.81,2.84-3-.11-9.07-.18-18.14.03-27.21.07-2.91-1.09-3.23-3.51-3.18-7.2.13-14.4.05-21.59.05Z"></path><path class="cls-1" d="m184.92,111.39c13.8.02,24.84,10.86,24.85,24.4.01,13.51-11.03,24.47-24.76,24.59-13.76.12-25.29-11.21-25.15-24.72.14-13.48,11.31-24.3,25.07-24.28Zm11.75,24.35c-.04-6.4-5.39-11.35-12.12-11.23-6.41.11-11.66,5.29-11.57,11.43.09,6.21,5.32,11.23,11.76,11.28,6.65.06,11.97-5.06,11.93-11.48Z"></path><path class="cls-1" d="m248.89,111.39c13.89-.01,24.91,10.77,24.92,24.39.01,13.58-11.07,24.57-24.82,24.6-13.73.03-24.93-10.94-24.99-24.49-.06-13.53,11.08-24.49,24.88-24.5Zm.18,12.81c-6.64-.05-12.12,4.99-12.32,11.31-.2,6.35,5.43,12.03,12.06,12.16,6.59.13,12.21-5.36,12.18-11.9-.02-6.51-5.19-11.52-11.92-11.57Z"></path><path class="cls-1" d="m331.75,125.44c-11.52,0-23.03.02-34.55,0-4.93-.01-7.55-2.15-7.68-6.15-.14-4.17,2.63-6.67,7.7-6.68,23.17-.04,46.35-.04,69.52,0,4.91,0,7.36,2.29,7.36,6.48,0,4.3-2.3,6.33-7.38,6.35-11.66.03-23.32.01-34.98.01Z"></path><path class="cls-1" d="m349.6,146.14c5.61,0,11.22-.03,16.83,0,5.22.03,7.73,2.21,7.67,6.57-.06,4.23-2.45,6.3-7.47,6.31-11.37.03-22.73.03-34.1,0-5.07-.01-7.85-2.39-7.78-6.54.07-4.13,2.81-6.32,8-6.35,5.61-.03,11.22,0,16.83,0Z"></path></g></g></svg> 